<svg id="visual" viewBox="0 0 1280 200" width="1280" height="200" xmlns="http://www.w3.org/2000/svg" xmlns:xlink="http://www.w3.org/1999/xlink" version="1.1"><path d="M0 45L30.5 44.2C61 43.3 122 41.7 183 42.2C244 42.7 305 45.3 366 45.7C427 46 488 44 548.8 42.5C609.7 41 670.3 40 731.2 44.3C792 48.7 853 58.3 914 68C975 77.7 1036 87.3 1097 86C1158 84.7 1219 72.3 1249.5 66.2L1280 60L1280 201L1249.5 201C1219 201 1158 201 1097 201C1036 201 975 201 914 201C853 201 792 201 731.2 201C670.3 201 609.7 201 548.8 201C488 201 427 201 366 201C305 201 244 201 183 201C122 201 61 201 30.5 201L0 201Z" fill="#fa7268"></path><path d="M0 121L30.5 122.2C61 123.3 122 125.7 183 120.7C244 115.7 305 103.3 366 94C427 84.7 488 78.3 548.8 76.3C609.7 74.3 670.3 76.7 731.2 76.7C792 76.7 853 74.3 914 80C975 85.7 1036 99.3 1097 101.8C1158 104.3 1219 95.7 1249.5 91.3L1280 87L1280 201L1249.5 201C1219 201 1158 201 1097 201C1036 201 975 201 914 201C853 201 792 201 731.2 201C670.3 201 609.7 201 548.8 201C488 201 427 201 366 201C305 201 244 201 183 201C122 201 61 201 30.5 201L0 201Z" fill="#eb5967"></path><path d="M0 146L30.5 147.2C61 148.3 122 150.7 183 144.8C244 139 305 125 366 123.2C427 121.3 488 131.7 548.8 131.8C609.7 132 670.3 122 731.2 118C792 114 853 116 914 121.2C975 126.3 1036 134.7 1097 137.3C1158 140 1219 137 1249.5 135.5L1280 134L1280 201L1249.5 201C1219 201 1158 201 1097 201C1036 201 975 201 914 201C853 201 792 201 731.2 201C670.3 201 609.7 201 548.8 201C488 201 427 201 366 201C305 201 244 201 183 201C122 201 61 201 30.5 201L0 201Z" fill="#da3f67"></path><path d="M0 157L30.5 157.7C61 158.3 122 159.7 183 160.5C244 161.3 305 161.7 366 161.3C427 161 488 160 548.8 156.8C609.7 153.7 670.3 148.3 731.2 145.8C792 143.3 853 143.7 914 143.2C975 142.7 1036 141.3 1097 141.5C1158 141.7 1219 143.3 1249.5 144.2L1280 145L1280 201L1249.5 201C1219 201 1158 201 1097 201C1036 201 975 201 914 201C853 201 792 201 731.2 201C670.3 201 609.7 201 548.8 201C488 201 427 201 366 201C305 201 244 201 183 201C122 201 61 201 30.5 201L0 201Z" fill="#c62368"></path></svg>