<svg id="visual" viewBox="0 0 1280 200" width="1280" height="200" xmlns="http://www.w3.org/2000/svg" xmlns:xlink="http://www.w3.org/1999/xlink" version="1.1"><path d="M0 75L30.5 72.7C61 70.3 122 65.7 183 65.2C244 64.7 305 68.3 366 70.3C427 72.3 488 72.7 548.8 77C609.7 81.3 670.3 89.7 731.2 85.8C792 82 853 66 914 59.5C975 53 1036 56 1097 54C1158 52 1219 45 1249.5 41.5L1280 38L1280 201L1249.5 201C1219 201 1158 201 1097 201C1036 201 975 201 914 201C853 201 792 201 731.2 201C670.3 201 609.7 201 548.8 201C488 201 427 201 366 201C305 201 244 201 183 201C122 201 61 201 30.5 201L0 201Z" fill="#fa7268"></path><path d="M0 99L30.5 95C61 91 122 83 183 85.8C244 88.7 305 102.3 366 110C427 117.7 488 119.3 548.8 112.7C609.7 106 670.3 91 731.2 90.3C792 89.7 853 103.3 914 110.2C975 117 1036 117 1097 118.3C1158 119.7 1219 122.3 1249.5 123.7L1280 125L1280 201L1249.5 201C1219 201 1158 201 1097 201C1036 201 975 201 914 201C853 201 792 201 731.2 201C670.3 201 609.7 201 548.8 201C488 201 427 201 366 201C305 201 244 201 183 201C122 201 61 201 30.5 201L0 201Z" fill="#eb5967"></path><path d="M0 121L30.5 120.8C61 120.7 122 120.3 183 119.5C244 118.7 305 117.3 366 117.3C427 117.3 488 118.7 548.8 122.5C609.7 126.3 670.3 132.7 731.2 136.7C792 140.7 853 142.3 914 138.8C975 135.3 1036 126.7 1097 120.8C1158 115 1219 112 1249.5 110.5L1280 109L1280 201L1249.5 201C1219 201 1158 201 1097 201C1036 201 975 201 914 201C853 201 792 201 731.2 201C670.3 201 609.7 201 548.8 201C488 201 427 201 366 201C305 201 244 201 183 201C122 201 61 201 30.5 201L0 201Z" fill="#da3f67"></path><path d="M0 156L30.5 159.8C61 163.7 122 171.3 183 171.5C244 171.7 305 164.3 366 162.5C427 160.7 488 164.3 548.8 162.7C609.7 161 670.3 154 731.2 155.7C792 157.3 853 167.7 914 169.2C975 170.7 1036 163.3 1097 157.5C1158 151.7 1219 147.3 1249.5 145.2L1280 143L1280 201L1249.5 201C1219 201 1158 201 1097 201C1036 201 975 201 914 201C853 201 792 201 731.2 201C670.3 201 609.7 201 548.8 201C488 201 427 201 366 201C305 201 244 201 183 201C122 201 61 201 30.5 201L0 201Z" fill="#c62368"></path></svg>